<svg
  xml:space="preserve"
  enable-background="new 0 0 64 64"
  viewBox="0 0 64 64"
  height="64px"
  width="64px"
  y="0px"
  x="0px"
  id="Layer_1"
  version="1.1"
  xmlns:xlink="http://www.w3.org/1999/xlink"
  xmlns="http://www.w3.org/2000/svg"
  alt="icon"
>
<g xmlns="http://www.w3.org/2000/svg">
	<polygon
      fill="none"
      stroke="#fff"
      stroke-width="2"
      stroke-miterlimit="10"
      points="32,1 26,1 26,10 20,12 14,6 6,14 12,20    10,26 1,26 1,38 10,38 12,44 6,50 14,58 20,52 26,54 26,63 32,63 38,63 38,54 44,52 50,58 58,50 52,44 54,38 63,38 63,26 54,26    52,20 58,14 50,6 44,12 38,10 38,1  "
    />
	<circle
      fill="none"
      stroke="#fff"
      stroke-width="2"
      stroke-miterlimit="10"
      cx="32"
      cy="32"
      r="6"
    />
</g>
</svg>
